<svg data-v-423bf9ae="" xmlns="http://www.w3.org/2000/svg" viewBox="0 0 283 90" class="iconLeftSlogan"><!----><!----><!----><g data-v-423bf9ae="" id="a30cee90-ec9d-49e9-bcc3-5757ef51288b" fill="black" transform="matrix(3.4542312666144936,0,0,3.4542312666144936,105.31643249820634,2.6943000507143786)"><path d="M9.69 11.13L9.69 11.13L9.69 11.13Q9.73 11.21 9.69 11.30L9.69 11.30L9.69 11.30Q9.60 11.49 9.49 11.61L9.49 11.61L9.49 11.61Q9.35 11.75 9.17 11.75L9.17 11.75L9.17 11.75Q8.69 11.75 8.34 11.24L8.34 11.24L8.34 11.24Q8.04 10.79 7.78 9.90L7.78 9.90L7.78 9.90Q7.32 8.26 7.32 5.95L7.32 5.95L7.32 5.95Q7.32 5.40 7.39 4.82L7.39 4.82L7.39 4.82Q7.46 4.24 7.49 3.61L7.49 3.61L7.49 3.58L7.49 3.58Q7.38 4.30 7.18 5.06L7.18 5.06L7.18 5.06Q6.99 5.82 6.79 6.78L6.79 6.78L6.79 6.78Q6.68 7.21 6.60 7.53L6.60 7.53L6.60 7.53Q6.52 7.84 6.44 8.12L6.44 8.12L6.44 8.12Q6.36 8.40 6.24 8.69L6.24 8.69L6.24 8.69Q6.12 8.99 5.92 9.37L5.92 9.37L5.92 9.37Q5.81 9.60 5.68 9.77L5.68 9.77L5.68 9.77Q5.54 9.94 5.42 10.05L5.42 10.05L5.42 10.05Q5.12 10.32 4.86 10.32L4.86 10.32L4.86 10.32Q4.52 10.32 4.21 10.05L4.21 10.05L4.21 10.05Q3.95 9.83 3.71 9.35L3.71 9.35L3.71 9.35Q3.49 8.90 3.36 8.27L3.36 8.27L3.36 8.27Q3.23 7.64 3.14 6.72L3.14 6.72L3.14 6.71L3.14 6.71Q2.94 5.15 2.72 3.51L2.72 3.51L2.72 3.51Q2.70 3.53 2.70 3.54L2.70 3.54L2.70 3.54Q2.70 3.56 2.69 3.57L2.69 3.57L2.69 3.57Q2.69 3.58 2.69 3.60L2.69 3.60L2.69 3.60Q2.58 3.89 2.44 4.30L2.44 4.30L2.44 4.30Q2.31 4.70 2.16 5.24L2.16 5.24L2.16 5.24Q2.00 5.67 1.87 6.07L1.87 6.07L1.87 6.07Q1.74 6.47 1.61 6.83L1.61 6.83L1.61 6.83Q1.51 7.11 1.44 7.37L1.44 7.37L1.44 7.37Q1.36 7.63 1.29 7.88L1.29 7.88L1.29 7.88Q1.20 8.23 1.11 8.54L1.11 8.54L1.11 8.54Q1.02 8.85 1.06 9.17L1.06 9.17L1.06 9.17Q1.11 9.48 1.19 9.68L1.19 9.68L1.19 9.68Q1.27 9.88 1.37 10.05L1.37 10.05L1.37 10.05Q1.43 10.16 1.46 10.29L1.46 10.29L1.46 10.29Q1.48 10.42 1.45 10.50L1.45 10.50L1.45 10.50Q1.41 10.58 1.29 10.61L1.29 10.61L1.29 10.61Q1.16 10.63 0.91 10.50L0.91 10.50L0.91 10.50Q0.77 10.43 0.66 10.30L0.66 10.30L0.66 10.30Q0.55 10.18 0.46 10.03L0.46 10.03L0.46 10.03Q0.38 9.88 0.33 9.74L0.33 9.74L0.33 9.74Q0.28 9.60 0.25 9.49L0.25 9.49L0.25 9.49Q0.14 9.09 0.21 8.60L0.21 8.60L0.21 8.60Q0.28 8.12 0.43 7.56L0.43 7.56L0.43 7.56Q0.46 7.45 0.55 7.21L0.55 7.21L0.55 7.21Q0.63 6.97 0.71 6.71L0.71 6.71L0.71 6.71Q0.80 6.45 0.88 6.24L0.88 6.24L0.88 6.24Q0.97 6.02 0.99 5.94L0.99 5.94L0.99 5.94Q1.13 5.57 1.26 5.19L1.26 5.19L1.26 5.19Q1.39 4.80 1.50 4.40L1.50 4.40L1.50 4.40Q1.89 3.09 2.08 2.03L2.08 2.03L2.08 2.03Q2.27 0.97 2.27 0.14L2.27 0.14L2.27 0.14Q2.27-0.28 2.42-0.52L2.42-0.52L2.42-0.52Q2.62-0.78 2.95-0.78L2.95-0.78L2.95-0.78Q3.36-0.78 4.06-0.25L4.06-0.25L4.06-0.25Q4.17-0.18 4.12-0.03L4.12-0.03L4.12-0.03Q4.09 0.04 4.06 0.18L4.06 0.18L4.06 0.18Q4.03 0.32 4.01 0.58L4.01 0.58L4.01 0.58Q3.99 0.84 3.98 1.23L3.98 1.23L3.98 1.23Q3.96 1.62 3.96 2.18L3.96 2.18L3.96 2.18Q3.96 3.46 4.05 4.60L4.05 4.60L4.05 4.60Q4.13 5.74 4.27 6.75L4.27 6.75L4.27 6.75Q4.35 7.35 4.41 7.77L4.41 7.77L4.41 7.77Q4.47 8.19 4.58 8.58L4.58 8.58L4.58 8.58Q4.63 8.76 4.76 8.93L4.76 8.93L4.76 8.93Q4.89 9.09 5.00 9.10L5.00 9.10L5.00 9.10Q5.00 9.10 5.03 9.07L5.03 9.07L5.03 9.07Q5.07 9.04 5.13 8.97L5.13 8.97L5.13 8.97Q5.19 8.89 5.29 8.74L5.29 8.74L5.29 8.74Q5.38 8.60 5.49 8.36L5.49 8.36L5.49 8.36Q5.67 7.97 5.80 7.42L5.80 7.42L5.80 7.42Q5.94 6.87 6.13 6.10L6.13 6.10L6.13 6.10Q6.48 4.70 6.69 3.54L6.69 3.54L6.69 3.54Q6.90 2.38 7.10 1.40L7.10 1.40L7.10 1.40Q7.11 1.20 7.12 1.07L7.12 1.07L7.12 1.07Q7.13 0.94 7.13 0.83L7.13 0.83L7.13 0.83Q7.13 0.73 7.13 0.63L7.13 0.63L7.13 0.63Q7.13 0.53 7.13 0.39L7.13 0.39L7.13 0.39Q7.13 0.22 7.15 0.10L7.15 0.10L7.15 0.10Q7.17-0.03 7.20-0.14L7.20-0.14L7.20-0.14Q7.22-0.22 7.31-0.36L7.31-0.36L7.31-0.36Q7.39-0.49 7.53-0.49L7.53-0.49L7.53-0.49Q7.97-0.49 8.25-0.43L8.25-0.43L8.25-0.43Q8.44-0.41 8.58-0.37L8.58-0.37L8.58-0.37Q8.71-0.34 8.82-0.28L8.82-0.28L8.82-0.28Q8.99-0.20 9.05-0.08L9.05-0.08L9.05-0.08Q9.11 0.03 9.13 0.10L9.13 0.10L9.13 0.10Q9.13 0.18 9.11 0.21L9.11 0.21L9.11 0.21Q9.09 0.25 9.04 0.43L9.04 0.43L9.04 0.43Q9.00 0.60 8.93 1.04L8.93 1.04L8.93 1.04Q8.88 1.39 8.82 1.86L8.82 1.86L8.82 1.86Q8.76 2.32 8.69 2.91L8.69 2.91L8.69 2.91Q8.44 5.29 8.44 6.72L8.44 6.72L8.44 6.72Q8.44 8.93 8.74 9.94L8.74 9.94L8.74 9.94Q9.02 10.86 9.56 11.02L9.56 11.02L9.56 11.02Q9.66 11.05 9.69 11.13ZM13.92 5.49L13.92 5.49L13.92 5.49Q13.99 5.50 13.98 5.56L13.98 5.56L13.98 5.56Q13.97 5.63 13.97 5.92L13.97 5.92L13.97 5.92Q13.97 6.20 13.86 6.78L13.86 6.78L13.86 6.78Q13.75 7.35 13.47 8.25L13.47 8.25L13.47 8.25Q13.31 8.74 13.13 9.11L13.13 9.11L13.13 9.11Q12.95 9.49 12.81 9.74L12.81 9.74L12.81 9.74Q12.70 9.94 12.54 10.14L12.54 10.14L12.54 10.14Q12.38 10.33 12.14 10.33L12.14 10.33L12.14 10.33Q11.69 10.33 11.44 9.97L11.44 9.97L11.44 9.97Q11.40 9.90 11.35 9.82L11.35 9.82L11.35 9.82Q11.30 9.74 11.24 9.63L11.24 9.63L11.24 9.63Q10.88 10.64 10.22 10.64L10.22 10.64L10.22 10.64Q9.90 10.64 9.63 10.40L9.63 10.40L9.63 10.40Q9.13 9.88 9.17 8.23L9.17 8.23L9.17 8.23Q9.18 7.97 9.24 7.61L9.24 7.61L9.24 7.61Q9.30 7.25 9.38 6.85L9.38 6.85L9.38 6.85Q9.44 6.62 9.51 6.36L9.51 6.36L9.51 6.36Q9.59 6.09 9.68 5.82L9.68 5.82L9.68 5.82Q9.77 5.56 9.86 5.33L9.86 5.33L9.86 5.33Q9.94 5.11 10.01 4.97L10.01 4.97L10.01 4.97Q10.11 4.79 10.26 4.60L10.26 4.60L10.26 4.60Q10.40 4.41 10.61 4.41L10.61 4.41L10.61 4.41Q10.77 4.41 10.95 4.49L10.95 4.49L10.95 4.49Q11.13 4.56 11.29 4.70L11.29 4.70L11.29 4.70Q11.45 4.83 11.57 5.01L11.57 5.01L11.57 5.01Q11.69 5.19 11.72 5.39L11.72 5.39L11.72 5.39Q11.79 5.84 11.73 6.02L11.73 6.02L11.73 6.02Q11.68 6.20 11.62 6.29L11.62 6.29L11.62 6.29Q11.59 6.31 11.54 6.36L11.54 6.36L11.54 6.36Q11.49 6.40 11.43 6.42L11.43 6.42L11.43 6.42Q11.37 6.44 11.32 6.42L11.32 6.42L11.32 6.42Q11.27 6.40 11.26 6.30L11.26 6.30L11.26 6.30Q11.21 5.96 11.12 5.72L11.12 5.72L11.12 5.72Q11.02 5.47 10.84 5.45L10.84 5.45L10.84 5.45Q10.79 5.52 10.70 5.78L10.70 5.78L10.70 5.78Q10.60 6.05 10.42 6.69L10.42 6.69L10.42 6.69Q10.23 7.34 10.12 7.90L10.12 7.90L10.12 7.90Q10.04 8.57 10.04 9.28L10.04 9.28L10.04 9.28Q10.04 9.51 10.14 9.70L10.14 9.70L10.14 9.70Q10.16 9.76 10.23 9.79L10.23 9.79L10.23 9.79Q10.30 9.83 10.33 9.83L10.33 9.83L10.33 9.83Q10.39 9.83 10.51 9.59L10.51 9.59L10.51 9.59Q10.64 9.35 10.79 8.90L10.79 8.90L10.79 8.90Q10.95 8.50 10.99 8.15L10.99 8.15L10.99 8.15Q11.03 7.80 11.10 7.43L11.10 7.43L11.10 7.43Q11.13 7.32 11.14 7.22L11.14 7.22L11.14 7.22Q11.16 7.13 11.17 7.01L11.17 7.01L11.17 7.01Q11.19 6.90 11.17 6.86L11.17 6.86L11.17 6.86Q11.14 6.82 11.19 6.76L11.19 6.76L11.19 6.76Q11.23 6.71 11.28 6.71L11.28 6.71L11.28 6.71Q11.33 6.71 11.35 6.71L11.35 6.71L11.35 6.71Q11.38 6.71 11.42 6.71L11.42 6.71L11.42 6.71Q11.47 6.72 11.49 6.72L11.49 6.72L11.49 6.72Q11.55 6.72 11.59 6.75L11.59 6.75L11.59 6.75Q11.63 6.79 11.69 6.80L11.69 6.80L11.69 6.80Q11.75 6.82 11.78 6.84L11.78 6.84L11.78 6.84Q11.82 6.86 11.86 6.89L11.86 6.89L11.86 6.89Q11.91 6.90 11.97 6.93L11.97 6.93L11.97 6.93Q12.01 6.96 12.05 7L12.05 7L12.05 7Q12.08 7.04 12.05 7.10L12.05 7.10L12.05 7.10Q12.01 7.22 11.98 7.36L11.98 7.36L11.98 7.36Q11.94 7.50 11.91 7.64L11.91 7.64L11.91 7.64Q11.89 7.84 11.87 8.06L11.87 8.06L11.87 8.06Q11.84 8.29 11.82 8.50L11.82 8.50L11.82 8.50Q11.79 8.88 11.90 9.25L11.90 9.25L11.90 9.25Q11.96 9.41 11.99 9.46L11.99 9.46L11.99 9.46Q12.03 9.51 12.04 9.52L12.04 9.52L12.04 9.52Q12.05 9.52 12.08 9.48L12.08 9.48L12.08 9.48Q12.11 9.45 12.17 9.36L12.17 9.36L12.17 9.36Q12.22 9.27 12.31 9.09L12.31 9.09L12.31 9.09Q12.40 8.92 12.54 8.64L12.54 8.64L12.54 8.64Q12.82 8.06 12.96 7.59L12.96 7.59L12.96 7.59Q13.09 7.13 13.17 6.87L13.17 6.87L13.52 5.89L13.52 5.89Q13.55 5.78 13.63 5.62L13.63 5.62L13.63 5.62Q13.71 5.46 13.92 5.49ZM17.74 11.13L17.74 11.13L17.74 11.13Q18.02 11.26 18.02 11.56L18.02 11.56L18.02 11.56Q18.02 11.66 17.95 11.80L17.95 11.80L17.88 11.91L17.74 11.90L17.74 11.90Q17.33 11.83 17.14 11.81L17.14 11.81L17.14 11.81Q16.95 11.79 16.88 11.79L16.88 11.79L16.88 11.79Q16.81 11.79 16.65 11.82L16.65 11.82L16.65 11.82Q16.49 11.86 16.17 11.97L16.17 11.97L16.17 11.97Q16.18 12.03 16.18 12.12L16.18 12.12L16.18 12.12Q16.18 12.21 16.20 12.33L16.20 12.33L16.20 12.33Q16.21 12.57 16.21 12.72L16.21 12.72L16.21 12.72Q16.21 12.87 16.21 12.96L16.21 12.96L16.21 12.96Q16.21 14.73 15.64 15.64L15.64 15.64L15.64 15.64Q15.02 16.59 13.82 16.59L13.82 16.59L13.82 16.59Q13.01 16.59 12.46 16.04L12.46 16.04L12.46 16.04Q11.91 15.48 11.91 14.67L11.91 14.67L11.91 14.67Q11.91 13.47 13.37 12.43L13.37 12.43L13.37 12.43Q14.39 11.70 15.32 11.48L15.32 11.48L15.32 11.48Q15.32 11.28 15.29 10.99L15.29 10.99L15.29 10.99Q15.27 10.70 15.25 10.32L15.25 10.32L15.25 10.32Q15.22 10.16 15.21 10.05L15.21 10.05L15.21 10.05Q15.20 9.94 15.19 9.83L15.19 9.83L15.19 9.83Q15.16 9.90 15.14 9.95L15.14 9.95L15.14 9.95Q15.12 10.00 15.09 10.07L15.09 10.07L15.08 10.07L15.08 10.07Q14.78 10.67 14.29 10.67L14.29 10.67L14.29 10.67Q13.76 10.67 13.43 10.12L13.43 10.12L13.43 10.12Q13.24 9.79 13.17 9.35L13.17 9.35L13.17 9.35Q13.02 9.74 12.89 9.98L12.89 9.98L12.89 9.98Q12.77 10.22 12.66 10.35L12.66 10.35L12.66 10.35Q12.54 10.49 12.45 10.53L12.45 10.53L12.45 10.53Q12.36 10.57 12.28 10.57L12.28 10.57L12.28 10.57Q11.91 10.57 11.82 10.44L11.82 10.44L11.82 10.44Q11.73 10.32 11.73 10.22L11.73 10.22L11.73 10.22Q11.73 10.07 11.79 9.99L11.79 9.99L11.79 9.99Q11.86 9.91 11.91 9.88L11.91 9.88L11.93 9.87L12.14 9.76L12.17 9.76L12.17 9.76Q12.18 9.74 12.22 9.68L12.22 9.68L12.22 9.68Q12.26 9.62 12.34 9.46L12.34 9.46L12.34 9.46Q12.42 9.31 12.52 9.05L12.52 9.05L12.52 9.05Q12.61 8.79 12.75 8.39L12.75 8.39L12.75 8.39Q13.10 7.32 13.38 6.17L13.38 6.17L13.38 6.17Q13.38 6.15 13.39 6.13L13.39 6.13L13.39 6.13Q13.40 6.12 13.40 6.09L13.40 6.09L13.40 6.09Q13.45 5.73 13.47 5.60L13.47 5.60L13.47 5.60Q13.50 5.47 13.52 5.42L13.52 5.42L13.52 5.42Q13.55 5.35 13.65 5.25L13.65 5.25L13.65 5.25Q13.75 5.15 13.96 5.15L13.96 5.15L13.96 5.15Q14.17 5.15 14.29 5.28L14.29 5.28L14.29 5.28Q14.32 5.32 14.36 5.40L14.36 5.40L14.36 5.40Q14.39 5.47 14.39 5.59L14.39 5.59L14.39 5.59Q14.28 6.37 14.22 7.11L14.22 7.11L14.22 7.11Q14.10 8.27 14.10 8.92L14.10 8.92L14.10 8.92Q14.10 9.51 14.17 9.71L14.17 9.71L14.17 9.71Q14.25 9.91 14.28 9.93L14.28 9.93L14.28 9.93Q14.31 9.90 14.38 9.80L14.38 9.80L14.38 9.80Q14.46 9.70 14.59 9.39L14.59 9.39L14.59 9.39Q14.70 9.11 14.82 8.73L14.82 8.73L14.82 8.73Q14.94 8.34 15.06 7.84L15.06 7.84L15.06 7.84Q15.12 7.39 15.20 6.72L15.20 6.72L15.20 6.72Q15.29 6.05 15.41 5.12L15.41 5.12L15.41 5.12Q15.48 4.61 16.00 4.56L16.00 4.56L16.00 4.56Q16.02 4.55 16.07 4.55L16.07 4.55L16.07 4.55Q16.25 4.55 16.35 4.66L16.35 4.66L16.35 4.66Q16.45 4.77 16.45 4.96L16.45 4.96L16.45 4.96Q16.45 5.15 16.37 5.52L16.37 5.52L16.37 5.52Q16.30 5.89 16.13 6.48L16.13 6.48L16.13 6.48Q16.10 6.57 16.08 6.75L16.08 6.75L16.08 6.75Q16.06 6.94 16.04 7.29L16.04 7.29L16.04 7.29Q16.03 7.64 16.02 8.17L16.02 8.17L16.02 8.17Q16.02 8.69 16.02 9.46L16.02 9.46L16.02 9.46Q16.03 9.79 16.04 10.12L16.04 10.12L16.04 10.12Q16.04 10.46 16.07 10.81L16.07 10.81L16.07 10.81Q16.07 10.96 16.08 11.07L16.08 11.07L16.08 11.07Q16.09 11.17 16.09 11.24L16.09 11.24L16.09 11.24Q16.16 11.21 16.24 11.19L16.24 11.19L16.24 11.19Q16.32 11.17 16.44 11.14L16.44 11.14L16.44 11.14Q16.87 11.02 17.15 11.02L17.15 11.02L17.15 11.02Q17.51 11.02 17.74 11.13ZM15.36 13.05L15.36 12.24L15.36 12.24Q15.23 12.28 15.11 12.33L15.11 12.33L15.11 12.33Q14.98 12.38 14.87 12.43L14.87 12.43L14.85 12.43L14.85 12.43Q14.03 12.80 13.50 13.36L13.50 13.36L13.50 13.36Q12.78 14.06 12.78 14.81L12.78 14.81L12.78 14.81Q12.78 15.25 13.06 15.57L13.06 15.57L13.06 15.57Q13.33 15.88 13.68 15.88L13.68 15.88L13.68 15.88Q14.38 15.88 14.84 15.11L14.84 15.11L14.84 15.11Q15.36 14.28 15.36 13.05L15.36 13.05ZM21.46 5.53L21.46 5.53L21.46 5.53Q21.57 5.53 21.68 5.61L21.68 5.61L21.68 5.61Q21.78 5.70 21.78 5.91L21.78 5.91L21.78 5.91Q21.78 6.41 21.27 8.06L21.27 8.06L21.27 8.06Q20.90 9.16 20.56 9.68L20.56 9.68L20.56 9.68Q20.22 10.21 19.82 10.21L19.82 10.21L19.82 10.21Q19.46 10.21 19.24 9.87L19.24 9.87L19.24 9.87Q19.18 9.79 19.11 9.64L19.11 9.64L19.11 9.64Q19.04 9.49 18.97 9.30L18.97 9.30L18.97 9.30Q18.83 9.63 18.78 9.76L18.78 9.76L18.78 9.76Q18.73 9.88 18.70 9.93L18.70 9.93L18.70 9.94L18.70 9.94Q18.34 10.51 17.82 10.51L17.82 10.51L17.82 10.51Q17.67 10.51 17.46 10.42L17.46 10.42L17.46 10.42Q17.26 10.33 17.08 10.04L17.08 10.04L17.08 10.04Q16.83 9.60 16.83 9.04L16.83 9.04L16.83 9.04Q16.83 8.57 16.85 8.03L16.85 8.03L16.85 8.03Q16.87 7.49 16.90 6.86L16.90 6.86L16.90 6.86Q16.93 6.37 16.95 6.09L16.95 6.09L16.95 6.09Q16.98 5.81 17.00 5.67L17.00 5.67L17.00 5.67Q17.02 5.53 17.04 5.48L17.04 5.48L17.04 5.48Q17.05 5.43 17.07 5.40L17.07 5.40L17.07 5.40Q17.11 5.33 17.21 5.26L17.21 5.26L17.21 5.26Q17.30 5.18 17.50 5.18L17.50 5.18L17.50 5.18Q17.58 5.18 17.70 5.22L17.70 5.22L17.70 5.22Q17.81 5.26 17.92 5.39L17.92 5.39L17.92 5.39Q18.10 5.57 18.10 5.78L18.10 5.78L18.10 5.78Q18.10 5.92 18.03 6.17L18.03 6.17L18.03 6.17Q17.99 6.33 17.97 6.41L17.97 6.41L17.97 6.41Q17.95 6.48 17.95 6.51L17.95 6.51L17.95 6.51Q17.74 7.67 17.74 9.27L17.74 9.27L17.74 9.27Q17.74 9.55 17.77 9.63L17.77 9.63L17.77 9.63Q17.81 9.72 17.82 9.73L17.82 9.73L17.82 9.73Q17.89 9.73 17.94 9.66L17.94 9.66L17.94 9.66Q17.99 9.59 18.03 9.52L18.03 9.52L18.03 9.52Q18.10 9.37 18.17 9.21L18.17 9.21L18.17 9.21Q18.24 9.04 18.31 8.89L18.31 8.89L18.31 8.88L18.31 8.88Q18.63 8.19 18.79 7L18.79 7L18.79 7Q18.80 6.93 18.82 6.75L18.82 6.75L18.82 6.75Q18.84 6.58 18.90 6.30L18.90 6.30L18.90 6.29L18.90 6.29Q18.97 5.89 18.97 5.73L18.97 5.73L18.97 5.33L18.97 5.33Q18.93 5.04 19.03 4.83L19.03 4.83L19.03 4.83Q19.14 4.59 19.40 4.59L19.40 4.59L19.49 4.59L19.49 4.59Q19.89 4.61 19.99 4.77L19.99 4.77L19.99 4.77Q20.09 4.93 20.09 5.04L20.09 5.04L20.09 5.04Q20.09 5.18 19.98 5.36L19.98 5.36L19.98 5.36Q19.94 5.45 19.91 5.60L19.91 5.60L19.91 5.60Q19.91 5.61 19.90 5.66L19.90 5.66L19.90 5.66Q19.89 5.70 19.88 5.82L19.88 5.82L19.88 5.82Q19.87 5.94 19.84 6.16L19.84 6.16L19.84 6.16Q19.81 6.38 19.75 6.75L19.75 6.75L19.75 6.75Q19.70 7.15 19.67 7.50L19.67 7.50L19.67 7.50Q19.64 7.84 19.64 8.11L19.64 8.11L19.64 8.11Q19.64 8.44 19.66 8.70L19.66 8.70L19.66 8.70Q19.68 8.96 19.74 9.11L19.74 9.11L19.74 9.11Q19.81 9.32 19.87 9.34L19.87 9.34L19.87 9.34Q19.88 9.34 19.92 9.30L19.92 9.30L19.92 9.30Q19.96 9.25 20.05 9.11L20.05 9.11L20.05 9.11Q20.13 8.97 20.24 8.72L20.24 8.72L20.24 8.72Q20.36 8.47 20.50 8.02L20.50 8.02L20.50 8.02Q20.65 7.46 20.80 6.94L20.80 6.94L20.80 6.94Q20.94 6.41 21.10 5.89L21.10 5.89L21.10 5.89Q21.22 5.53 21.46 5.53ZM24.75 5.53L24.75 5.53L24.75 5.53Q24.81 5.53 24.94 5.59L24.94 5.59L24.94 5.59Q25.07 5.66 25.07 5.95L25.07 5.95L25.07 5.95Q25.07 6.44 24.49 8.29L24.49 8.29L24.49 8.29Q24.25 8.99 24.07 9.41L24.07 9.41L24.07 9.41Q23.88 9.83 23.74 10.05L23.74 10.05L23.74 10.05Q23.59 10.28 23.47 10.35L23.47 10.35L23.47 10.35Q23.35 10.42 23.25 10.42L23.25 10.42L23.25 10.42Q22.68 10.42 22.32 9.77L22.32 9.77L22.32 9.77Q22.26 9.70 22.21 9.49L22.21 9.49L22.21 9.49Q22.16 9.28 22.13 8.76L22.13 8.76L22.13 7.69L22.13 6.48L22.13 6.48Q22.13 6.45 22.08 6.35L22.08 6.35L22.08 6.35Q22.02 6.24 21.77 6.08L21.77 6.08L21.77 6.08Q21.69 6.52 21.43 7.39L21.43 7.39L21.43 7.39Q21.43 7.43 21.35 7.60L21.35 7.60L21.35 7.60Q21.32 7.66 21.31 7.69L21.31 7.69L21.31 7.69Q21.29 7.71 21.28 7.73L21.28 7.73L21.28 7.73Q21.28 7.78 21.21 7.83L21.21 7.83L21.21 7.83Q21.14 7.90 21.04 7.85L21.04 7.85L20.83 7.80L20.83 7.80Q20.68 7.74 20.68 7.60L20.68 7.60L20.68 7.60Q20.68 7.59 20.68 7.55L20.68 7.55L20.68 7.55Q20.68 7.52 20.70 7.43L20.70 7.43L20.70 7.43Q20.72 7.34 20.76 7.17L20.76 7.17L20.76 7.17Q20.80 7 20.89 6.71L20.89 6.71L20.89 6.71Q21.07 6.02 21.07 5.60L21.07 5.60L21.07 5.60Q21.07 5.57 21.06 5.47L21.06 5.47L21.06 5.47Q21.04 5.36 20.97 5.17L20.97 5.17L20.97 5.17Q20.83 4.83 20.83 4.56L20.83 4.56L20.83 4.56Q20.83 4.27 20.89 4.09L20.89 4.09L20.89 4.09Q20.94 3.91 21.03 3.80L21.03 3.80L21.03 3.80Q21.11 3.70 21.22 3.65L21.22 3.65L21.22 3.65Q21.32 3.61 21.42 3.61L21.42 3.61L21.42 3.61Q21.48 3.61 21.56 3.63L21.56 3.63L21.56 3.63Q21.64 3.65 21.72 3.72L21.72 3.72L21.72 3.72Q21.80 3.79 21.86 3.93L21.86 3.93L21.86 3.93Q21.92 4.06 21.94 4.27L21.94 4.27L21.94 4.27Q21.95 4.41 21.91 4.76L21.91 4.76L21.91 4.76Q21.88 4.96 21.88 5.05L21.88 5.05L21.88 5.05Q21.88 5.15 21.88 5.21L21.88 5.21L21.88 5.21Q21.90 5.24 21.99 5.31L21.99 5.31L21.99 5.31Q22.09 5.38 22.40 5.53L22.40 5.53L22.40 5.53Q23.16 5.89 23.16 6.47L23.16 6.47L23.16 6.47Q23.16 6.50 23.15 6.57L23.15 6.57L23.15 6.57Q23.14 6.65 23.14 6.80L23.14 6.80L23.14 6.80Q23.13 6.96 23.10 7.22L23.10 7.22L23.10 7.22Q23.07 7.49 23.03 7.91L23.03 7.91L23.03 7.91Q23.00 8.20 22.98 8.40L22.98 8.40L22.98 8.40Q22.96 8.60 22.95 8.72L22.95 8.72L22.95 8.72Q22.93 8.85 22.93 8.93L22.93 8.93L22.93 8.93Q22.92 9.02 22.92 9.10L22.92 9.10L22.92 9.10Q22.92 9.44 22.99 9.52L22.99 9.52L22.99 9.52Q23.06 9.60 23.13 9.60L23.13 9.60L23.13 9.60Q23.14 9.59 23.19 9.53L23.19 9.53L23.19 9.53Q23.24 9.46 23.32 9.30L23.32 9.30L23.32 9.30Q23.39 9.14 23.50 8.87L23.50 8.87L23.50 8.87Q23.60 8.60 23.76 8.16L23.76 8.16L23.76 8.16Q24.23 6.79 24.35 6.05L24.35 6.05L24.35 6.05Q24.39 5.73 24.51 5.63L24.51 5.63L24.51 5.63Q24.64 5.53 24.75 5.53ZM32.30 10.44L32.30 10.44L32.30 10.44Q32.24 10.44 32.14 10.42L32.14 10.42L32.14 10.42Q32.03 10.40 31.78 10.30L31.78 10.30L31.78 10.30Q31.58 10.23 31.39 10.08L31.39 10.08L31.39 10.08Q31.19 9.93 30.90 9.69L30.90 9.69L30.90 9.69Q30.73 9.55 30.52 9.35L30.52 9.35L30.52 9.35Q30.31 9.14 30.09 8.92L30.09 8.92L30.09 8.92Q29.86 8.69 29.63 8.47L29.63 8.47L29.63 8.47Q29.40 8.25 29.19 8.06L29.19 8.06L29.19 8.06Q29.19 8.75 29.20 9.14L29.20 9.14L29.20 9.14Q29.20 9.53 29.20 9.65L29.20 9.65L29.20 9.65Q29.23 10.08 29.30 10.26L29.30 10.26L29.30 10.26Q29.36 10.43 29.40 10.49L29.40 10.49L29.40 10.49Q29.46 10.54 29.46 10.63L29.46 10.63L29.46 10.63Q29.46 10.82 29.27 10.91L29.27 10.91L29.27 10.91Q29.19 10.98 28.97 10.98L28.97 10.98L28.97 10.98Q28.59 10.98 28.36 10.63L28.36 10.63L28.36 10.63Q28.17 10.33 28.15 9.77L28.15 9.77L28.15 9.76L28.15 9.76Q28.15 9.18 28.15 8.62L28.15 8.62L28.15 8.62Q28.14 8.06 28.14 7.48L28.14 7.48L28.14 7.48Q27.62 7.17 27.41 6.83L27.41 6.83L27.41 6.83Q27.36 6.75 27.40 6.68L27.40 6.68L27.51 6.30L27.51 6.30Q27.54 6.20 27.62 6.17L27.62 6.17L27.62 6.17Q27.73 6.13 27.89 6.05L27.89 6.05L27.89 6.05Q28.06 5.98 28.25 5.87L28.25 5.87L28.25 5.87Q28.25 5.59 28.29 5.08L28.29 5.08L28.29 5.08Q28.34 4.56 28.41 3.84L28.41 3.84L28.41 3.84Q28.48 3.08 28.55 2.55L28.55 2.55L28.55 2.55Q28.62 2.03 28.62 1.71L28.62 1.71L28.62 1.71Q28.62 1.34 28.62 1.00L28.62 1.00L28.62 1.00Q28.62 0.66 28.66 0.29L28.66 0.29L28.66 0.29Q28.69 0.14 28.76 0.04L28.76 0.04L28.76 0.04Q28.84-0.07 28.94-0.18L28.94-0.18L28.94-0.18Q29.02-0.32 29.11-0.45L29.11-0.45L29.11-0.45Q29.19-0.57 29.37-0.57L29.37-0.57L29.37-0.57Q29.57-0.57 29.67-0.51L29.67-0.51L29.67-0.51Q29.76-0.45 29.83-0.38L29.83-0.38L29.83-0.38Q29.97-0.20 29.97 0.14L29.97 0.14L29.97 0.14Q29.97 0.18 29.96 0.21L29.96 0.21L29.96 0.21Q29.96 0.24 29.94 0.34L29.94 0.34L29.94 0.34Q29.92 0.45 29.88 0.68L29.88 0.68L29.88 0.68Q29.85 0.91 29.79 1.30L29.79 1.30L29.79 1.30Q29.72 1.69 29.62 2.28L29.62 2.28L29.62 2.28Q29.48 3.22 29.41 3.97L29.41 3.97L29.41 3.97Q29.33 4.72 29.30 5.29L29.30 5.29L29.30 5.29Q29.68 5.05 29.98 4.87L29.98 4.87L29.98 4.87Q30.28 4.69 30.48 4.54L30.48 4.54L30.48 4.54Q30.91 4.23 31.19 4.02L31.19 4.02L31.19 4.02Q31.47 3.81 31.70 3.61L31.70 3.61L31.70 3.61Q32.16 3.22 32.45 2.93L32.45 2.93L32.45 2.93Q32.75 2.63 32.93 2.39L32.93 2.39L32.93 2.39Q33.11 2.14 33.22 1.93L33.22 1.93L33.22 1.93Q33.33 1.72 33.46 1.47L33.46 1.47L33.46 1.47Q33.50 1.37 33.64 1.37L33.64 1.37L33.64 1.37Q33.81 1.37 33.91 1.49L33.91 1.49L33.91 1.49Q34.02 1.61 34.05 1.67L34.05 1.67L34.05 1.67Q34.12 1.79 34.17 1.92L34.17 1.92L34.17 1.92Q34.22 2.06 34.22 2.21L34.22 2.21L34.22 2.21Q34.23 2.27 34.20 2.32L34.20 2.32L34.20 2.32Q33.80 3.02 32.98 3.79L32.98 3.79L32.98 3.79Q32.93 3.85 32.90 3.88L32.90 3.88L32.90 3.88Q32.87 3.92 32.80 3.98L32.80 3.98L32.80 3.98Q32.72 4.05 32.56 4.18L32.56 4.18L32.56 4.18Q32.41 4.31 32.09 4.56L32.09 4.56L32.09 4.56Q31.70 4.87 31.24 5.22L31.24 5.22L31.24 5.22Q30.79 5.57 30.31 5.87L30.31 5.87L30.31 5.87Q29.79 6.19 29.56 6.35L29.56 6.35L29.56 6.35Q29.33 6.51 29.25 6.58L29.25 6.58L29.25 6.58Q29.32 6.66 29.37 6.72L29.37 6.72L29.37 6.72Q29.43 6.78 29.53 6.86L29.53 6.86L29.53 6.86Q29.62 6.94 29.78 7.08L29.78 7.08L29.78 7.08Q29.93 7.21 30.20 7.45L30.20 7.45L30.20 7.45Q30.58 7.80 30.85 8.09L30.85 8.09L30.85 8.09Q31.12 8.37 31.34 8.60L31.34 8.60L31.34 8.60Q31.56 8.82 31.75 8.99L31.75 8.99L31.75 8.99Q31.95 9.16 32.17 9.27L32.17 9.27L32.17 9.27Q32.28 9.32 32.37 9.34L32.37 9.34L32.37 9.34Q32.45 9.35 32.61 9.37L32.61 9.37L32.61 9.37Q32.77 9.37 32.91 9.44L32.91 9.44L32.91 9.44Q33.07 9.53 33.10 9.70L33.10 9.70L33.10 9.70Q33.10 9.74 33.08 9.80L33.08 9.80L33.08 9.80Q33.05 9.86 33.01 9.88L33.01 9.88L33.01 9.88Q33.00 9.90 32.96 9.95L32.96 9.95L32.96 9.95Q32.91 10.00 32.80 10.11L32.80 10.11L32.80 10.11Q32.52 10.44 32.30 10.44ZM38.02 5.53L38.02 5.53L38.02 5.53Q38.14 5.53 38.24 5.61L38.24 5.61L38.24 5.61Q38.35 5.70 38.35 5.91L38.35 5.91L38.35 5.91Q38.35 6.41 37.83 8.06L37.83 8.06L37.83 8.06Q37.46 9.16 37.12 9.68L37.12 9.68L37.12 9.68Q36.78 10.21 36.39 10.21L36.39 10.21L36.39 10.21Q36.02 10.21 35.80 9.87L35.80 9.87L35.80 9.87Q35.74 9.79 35.67 9.64L35.67 9.64L35.67 9.64Q35.60 9.49 35.53 9.30L35.53 9.30L35.53 9.30Q35.39 9.63 35.34 9.76L35.34 9.76L35.34 9.76Q35.29 9.88 35.27 9.93L35.27 9.93L35.27 9.94L35.27 9.94Q34.90 10.51 34.38 10.51L34.38 10.51L34.38 10.51Q34.23 10.51 34.03 10.42L34.03 10.42L34.03 10.42Q33.82 10.33 33.64 10.04L33.64 10.04L33.64 10.04Q33.39 9.60 33.39 9.04L33.39 9.04L33.39 9.04Q33.39 8.57 33.41 8.03L33.41 8.03L33.41 8.03Q33.43 7.49 33.46 6.86L33.46 6.86L33.46 6.86Q33.49 6.37 33.52 6.09L33.52 6.09L33.52 6.09Q33.54 5.81 33.56 5.67L33.56 5.67L33.56 5.67Q33.59 5.53 33.60 5.48L33.60 5.48L33.60 5.48Q33.61 5.43 33.63 5.40L33.63 5.40L33.63 5.40Q33.67 5.33 33.77 5.26L33.77 5.26L33.77 5.26Q33.87 5.18 34.06 5.18L34.06 5.18L34.06 5.18Q34.15 5.18 34.26 5.22L34.26 5.22L34.26 5.22Q34.37 5.26 34.48 5.39L34.48 5.39L34.48 5.39Q34.66 5.57 34.66 5.78L34.66 5.78L34.66 5.78Q34.66 5.92 34.59 6.17L34.59 6.17L34.59 6.17Q34.55 6.33 34.53 6.41L34.53 6.41L34.53 6.41Q34.51 6.48 34.51 6.51L34.51 6.51L34.51 6.51Q34.30 7.67 34.30 9.27L34.30 9.27L34.30 9.27Q34.30 9.55 34.34 9.63L34.34 9.63L34.34 9.63Q34.37 9.72 34.38 9.73L34.38 9.73L34.38 9.73Q34.45 9.73 34.50 9.66L34.50 9.66L34.50 9.66Q34.55 9.59 34.59 9.52L34.59 9.52L34.59 9.52Q34.66 9.37 34.73 9.21L34.73 9.21L34.73 9.21Q34.80 9.04 34.87 8.89L34.87 8.89L34.87 8.88L34.87 8.88Q35.20 8.19 35.35 7L35.35 7L35.35 7Q35.36 6.93 35.38 6.75L35.38 6.75L35.38 6.75Q35.41 6.58 35.46 6.30L35.46 6.30L35.46 6.29L35.46 6.29Q35.53 5.89 35.53 5.73L35.53 5.73L35.53 5.33L35.53 5.33Q35.49 5.04 35.59 4.83L35.59 4.83L35.59 4.83Q35.70 4.59 35.97 4.59L35.97 4.59L36.05 4.59L36.05 4.59Q36.46 4.61 36.55 4.77L36.55 4.77L36.55 4.77Q36.65 4.93 36.65 5.04L36.65 5.04L36.65 5.04Q36.65 5.18 36.54 5.36L36.54 5.36L36.54 5.36Q36.50 5.45 36.47 5.60L36.47 5.60L36.47 5.60Q36.47 5.61 36.46 5.66L36.46 5.66L36.46 5.66Q36.46 5.70 36.44 5.82L36.44 5.82L36.44 5.82Q36.43 5.94 36.40 6.16L36.40 6.16L36.40 6.16Q36.37 6.38 36.32 6.75L36.32 6.75L36.32 6.75Q36.26 7.15 36.23 7.50L36.23 7.50L36.23 7.50Q36.20 7.84 36.20 8.11L36.20 8.11L36.20 8.11Q36.20 8.44 36.23 8.70L36.23 8.70L36.23 8.70Q36.25 8.96 36.30 9.11L36.30 9.11L36.30 9.11Q36.37 9.32 36.43 9.34L36.43 9.34L36.43 9.34Q36.44 9.34 36.48 9.30L36.48 9.30L36.48 9.30Q36.53 9.25 36.61 9.11L36.61 9.11L36.61 9.11Q36.69 8.97 36.81 8.72L36.81 8.72L36.81 8.72Q36.92 8.47 37.06 8.02L37.06 8.02L37.06 8.02Q37.21 7.46 37.36 6.94L37.36 6.94L37.36 6.94Q37.51 6.41 37.66 5.89L37.66 5.89L37.66 5.89Q37.79 5.53 38.02 5.53ZM43.99 5.43L43.99 5.43L43.99 5.43Q44.10 5.43 44.20 5.52L44.20 5.52L44.20 5.52Q44.30 5.60 44.30 5.81L44.30 5.81L44.30 5.81Q44.30 5.85 44.29 5.94L44.29 5.94L44.29 5.94Q44.28 6.02 44.25 6.17L44.25 6.17L44.25 6.17Q44.23 6.33 44.17 6.57L44.17 6.57L44.17 6.57Q44.11 6.80 44.02 7.15L44.02 7.15L44.02 7.15Q43.86 7.67 43.71 8.15L43.71 8.15L43.71 8.15Q43.55 8.62 43.39 9.06L43.39 9.06L43.39 9.06Q42.91 10.35 42.24 10.35L42.24 10.35L42.24 10.35Q41.45 10.35 41.29 8.89L41.29 8.89L41.29 8.89Q41.27 8.89 41.27 8.88L41.27 8.88L41.27 8.54L41.27 8.54Q41.17 8.85 41.11 9.05L41.11 9.05L41.11 9.05Q41.05 9.25 41.01 9.35L41.01 9.35L41.01 9.35Q40.63 10.35 40.11 10.35L40.11 10.35L40.11 10.35Q39.98 10.35 39.86 10.30L39.86 10.30L39.86 10.30Q39.73 10.26 39.63 10.14L39.63 10.14L39.63 10.14Q39.52 10.01 39.45 9.79L39.45 9.79L39.45 9.79Q39.38 9.58 39.38 9.24L39.38 9.24L39.38 9.24Q39.38 9.06 39.47 8.05L39.47 8.05L39.47 8.05Q39.49 7.77 39.50 7.52L39.50 7.52L39.50 7.52Q39.51 7.27 39.52 7.04L39.52 7.04L39.52 7.04Q39.48 7.17 39.44 7.41L39.44 7.41L39.44 7.41Q39.13 8.95 39.00 9.37L39.00 9.37L39.00 9.37Q38.63 10.56 38.04 10.56L38.04 10.56L38.04 10.56Q37.81 10.56 37.69 10.39L37.69 10.39L37.69 10.39Q37.56 10.23 37.49 9.99L37.49 9.99L37.49 9.99Q37.42 9.74 37.40 9.45L37.40 9.45L37.40 9.45Q37.38 9.16 37.38 8.88L37.38 8.88L37.38 8.88Q37.38 8.72 37.39 8.48L37.39 8.48L37.39 8.48Q37.39 8.23 37.41 7.88L37.41 7.88L37.41 7.88Q37.42 7.59 37.42 7.38L37.42 7.38L37.42 7.38Q37.42 7.18 37.42 7.04L37.42 7.04L37.31 6.73L37.31 6.73Q37.30 6.72 37.30 6.68L37.30 6.68L37.30 6.68Q37.24 5.85 37.49 5.57L37.49 5.57L37.49 5.57Q37.63 5.43 37.83 5.43L37.83 5.43L37.83 5.43Q37.91 5.43 38.02 5.46L38.02 5.46L38.02 5.46Q38.12 5.49 38.21 5.57L38.21 5.57L38.21 5.57Q38.29 5.66 38.35 5.81L38.35 5.81L38.35 5.81Q38.42 5.96 38.42 6.22L38.42 6.22L38.42 6.22Q38.42 6.80 38.30 7.32L38.30 7.32L38.30 7.32Q38.21 7.76 38.21 8.40L38.21 8.40L38.21 8.40Q38.21 8.55 38.21 8.70L38.21 8.70L38.21 8.70Q38.21 8.85 38.22 8.99L38.22 8.99L38.22 8.99Q38.25 8.89 38.28 8.80L38.28 8.80L38.28 8.80Q38.30 8.71 38.33 8.61L38.33 8.61L38.33 8.61Q38.50 7.69 38.64 7.08L38.64 7.08L38.64 7.08Q38.78 6.47 38.92 6.12L38.92 6.12L38.92 6.12Q38.95 6.05 39.00 5.92L39.00 5.92L39.00 5.92Q39.06 5.78 39.15 5.65L39.15 5.65L39.15 5.65Q39.24 5.52 39.38 5.42L39.38 5.42L39.38 5.42Q39.51 5.32 39.69 5.32L39.69 5.32L39.69 5.32Q39.80 5.32 39.95 5.39L39.95 5.39L39.95 5.39Q40.10 5.46 40.21 5.70L40.21 5.70L40.21 5.70Q40.35 5.98 40.35 6.54L40.35 6.54L40.35 6.55L40.35 6.55Q40.28 7.20 40.24 7.71L40.24 7.71L40.24 7.71Q40.19 8.22 40.19 8.60L40.19 8.60L40.19 8.60Q40.19 8.75 40.20 8.84L40.20 8.84L40.20 8.84Q40.21 8.93 40.21 9.00L40.21 9.00L40.21 9.00Q40.29 8.89 40.43 8.54L40.43 8.54L40.43 8.54Q40.56 8.19 40.75 7.45L40.75 7.45L40.75 7.45Q40.91 6.87 40.99 6.52L40.99 6.52L40.99 6.52Q41.08 6.16 41.12 5.95L41.12 5.95L41.12 5.95Q41.16 5.74 41.16 5.66L41.16 5.66L41.16 5.66Q41.16 5.59 41.16 5.56L41.16 5.56L41.16 5.49L41.16 5.49Q41.19 5.39 41.29 5.27L41.29 5.27L41.29 5.27Q41.38 5.15 41.68 5.15L41.68 5.15L41.68 5.15Q41.93 5.15 42.36 5.43L42.36 5.43L42.36 5.43Q42.49 5.52 42.45 5.64L42.45 5.64L42.45 5.64Q42.08 7.39 42.08 8.53L42.08 8.53L42.08 8.53Q42.08 8.85 42.11 9.04L42.11 9.04L42.11 9.04Q42.13 9.23 42.15 9.32L42.15 9.32L42.15 9.32Q42.20 9.44 42.24 9.48L42.24 9.48L42.24 9.48Q42.25 9.48 42.30 9.45L42.30 9.45L42.30 9.45Q42.35 9.42 42.44 9.30L42.44 9.30L42.44 9.30Q42.53 9.18 42.66 8.93L42.66 8.93L42.66 8.93Q42.78 8.67 42.94 8.20L42.94 8.20L42.94 8.19L42.94 8.19Q42.95 8.18 42.98 8.09L42.98 8.09L42.98 8.09Q43.01 7.99 43.07 7.77L43.07 7.77L43.07 7.77Q43.13 7.55 43.24 7.15L43.24 7.15L43.24 7.15Q43.34 6.76 43.51 6.15L43.51 6.15L43.51 6.15Q43.54 6.08 43.56 5.99L43.56 5.99L43.56 5.99Q43.58 5.91 43.61 5.82L43.61 5.82L43.64 5.70L43.64 5.68L43.64 5.68Q43.74 5.43 43.99 5.43ZM47.84 5.49L47.84 5.49L47.84 5.49Q47.91 5.50 47.90 5.56L47.90 5.56L47.90 5.56Q47.89 5.63 47.89 5.92L47.89 5.92L47.89 5.92Q47.89 6.20 47.78 6.78L47.78 6.78L47.78 6.78Q47.67 7.35 47.39 8.25L47.39 8.25L47.39 8.25Q47.24 8.74 47.05 9.11L47.05 9.11L47.05 9.11Q46.87 9.49 46.73 9.74L46.73 9.74L46.73 9.74Q46.62 9.94 46.46 10.14L46.46 10.14L46.46 10.14Q46.30 10.33 46.06 10.33L46.06 10.33L46.06 10.33Q45.61 10.33 45.36 9.97L45.36 9.97L45.36 9.97Q45.32 9.90 45.27 9.82L45.27 9.82L45.27 9.82Q45.22 9.74 45.16 9.63L45.16 9.63L45.16 9.63Q44.80 10.64 44.14 10.64L44.14 10.64L44.14 10.64Q43.82 10.64 43.55 10.40L43.55 10.40L43.55 10.40Q43.05 9.88 43.09 8.23L43.09 8.23L43.09 8.23Q43.11 7.97 43.16 7.61L43.16 7.61L43.16 7.61Q43.22 7.25 43.30 6.85L43.30 6.85L43.30 6.85Q43.36 6.62 43.44 6.36L43.44 6.36L43.44 6.36Q43.51 6.09 43.60 5.82L43.60 5.82L43.60 5.82Q43.69 5.56 43.78 5.33L43.78 5.33L43.78 5.33Q43.86 5.11 43.93 4.97L43.93 4.97L43.93 4.97Q44.03 4.79 44.18 4.60L44.18 4.60L44.18 4.60Q44.32 4.41 44.53 4.41L44.53 4.41L44.53 4.41Q44.69 4.41 44.87 4.49L44.87 4.49L44.87 4.49Q45.05 4.56 45.21 4.70L45.21 4.70L45.21 4.70Q45.37 4.83 45.49 5.01L45.49 5.01L45.49 5.01Q45.61 5.19 45.64 5.39L45.64 5.39L45.64 5.39Q45.71 5.84 45.65 6.02L45.65 6.02L45.65 6.02Q45.60 6.20 45.54 6.29L45.54 6.29L45.54 6.29Q45.51 6.31 45.47 6.36L45.47 6.36L45.47 6.36Q45.42 6.40 45.35 6.42L45.35 6.42L45.35 6.42Q45.29 6.44 45.24 6.42L45.24 6.42L45.24 6.42Q45.19 6.40 45.18 6.30L45.18 6.30L45.18 6.30Q45.14 5.96 45.04 5.72L45.04 5.72L45.04 5.72Q44.94 5.47 44.76 5.45L44.76 5.45L44.76 5.45Q44.72 5.52 44.62 5.78L44.62 5.78L44.62 5.78Q44.52 6.05 44.34 6.69L44.34 6.69L44.34 6.69Q44.16 7.34 44.04 7.90L44.04 7.90L44.04 7.90Q43.96 8.57 43.96 9.28L43.96 9.28L43.96 9.28Q43.96 9.51 44.06 9.70L44.06 9.70L44.06 9.70Q44.09 9.76 44.16 9.79L44.16 9.79L44.16 9.79Q44.23 9.83 44.25 9.83L44.25 9.83L44.25 9.83Q44.31 9.83 44.44 9.59L44.44 9.59L44.44 9.59Q44.56 9.35 44.72 8.90L44.72 8.90L44.72 8.90Q44.87 8.50 44.91 8.15L44.91 8.15L44.91 8.15Q44.95 7.80 45.02 7.43L45.02 7.43L45.02 7.43Q45.05 7.32 45.07 7.22L45.07 7.22L45.07 7.22Q45.08 7.13 45.09 7.01L45.09 7.01L45.09 7.01Q45.11 6.90 45.09 6.86L45.09 6.86L45.09 6.86Q45.07 6.82 45.11 6.76L45.11 6.76L45.11 6.76Q45.15 6.71 45.20 6.71L45.20 6.71L45.20 6.71Q45.25 6.71 45.28 6.71L45.28 6.71L45.28 6.71Q45.30 6.71 45.35 6.71L45.35 6.71L45.35 6.71Q45.39 6.72 45.42 6.72L45.42 6.72L45.42 6.72Q45.47 6.72 45.51 6.75L45.51 6.75L45.51 6.75Q45.56 6.79 45.61 6.80L45.61 6.80L45.61 6.80Q45.67 6.82 45.70 6.84L45.70 6.84L45.70 6.84Q45.74 6.86 45.78 6.89L45.78 6.89L45.78 6.89Q45.84 6.90 45.89 6.93L45.89 6.93L45.89 6.93Q45.93 6.96 45.97 7L45.97 7L45.97 7Q46.00 7.04 45.98 7.10L45.98 7.10L45.98 7.10Q45.93 7.22 45.90 7.36L45.90 7.36L45.90 7.36Q45.86 7.50 45.84 7.64L45.84 7.64L45.84 7.64Q45.81 7.84 45.79 8.06L45.79 8.06L45.79 8.06Q45.77 8.29 45.74 8.50L45.74 8.50L45.74 8.50Q45.71 8.88 45.82 9.25L45.82 9.25L45.82 9.25Q45.88 9.41 45.91 9.46L45.91 9.46L45.91 9.46Q45.95 9.51 45.96 9.52L45.96 9.52L45.96 9.52Q45.98 9.52 46.00 9.48L46.00 9.48L46.00 9.48Q46.03 9.45 46.09 9.36L46.09 9.36L46.09 9.36Q46.14 9.27 46.23 9.09L46.23 9.09L46.23 9.09Q46.33 8.92 46.47 8.64L46.47 8.64L46.47 8.64Q46.75 8.06 46.88 7.59L46.88 7.59L46.88 7.59Q47.01 7.13 47.10 6.87L47.10 6.87L47.45 5.89L47.45 5.89Q47.47 5.78 47.55 5.62L47.55 5.62L47.55 5.62Q47.63 5.46 47.84 5.49ZM51.00 5.53L51.00 5.53L51.00 5.53Q51.06 5.53 51.19 5.59L51.19 5.59L51.19 5.59Q51.32 5.66 51.32 5.95L51.32 5.95L51.32 5.95Q51.32 6.44 50.74 8.29L50.74 8.29L50.74 8.29Q50.50 8.99 50.32 9.41L50.32 9.41L50.32 9.41Q50.13 9.83 49.99 10.05L49.99 10.05L49.99 10.05Q49.84 10.28 49.72 10.35L49.72 10.35L49.72 10.35Q49.60 10.42 49.50 10.42L49.50 10.42L49.50 10.42Q48.93 10.42 48.57 9.77L48.57 9.77L48.57 9.77Q48.51 9.70 48.46 9.49L48.46 9.49L48.46 9.49Q48.41 9.28 48.38 8.76L48.38 8.76L48.38 7.69L48.38 6.48L48.38 6.48Q48.38 6.45 48.33 6.35L48.33 6.35L48.33 6.35Q48.27 6.24 48.02 6.08L48.02 6.08L48.02 6.08Q47.94 6.52 47.68 7.39L47.68 7.39L47.68 7.39Q47.68 7.43 47.60 7.60L47.60 7.60L47.60 7.60Q47.57 7.66 47.56 7.69L47.56 7.69L47.56 7.69Q47.54 7.71 47.53 7.73L47.53 7.73L47.53 7.73Q47.53 7.78 47.46 7.83L47.46 7.83L47.46 7.83Q47.39 7.90 47.29 7.85L47.29 7.85L47.08 7.80L47.08 7.80Q46.93 7.74 46.93 7.60L46.93 7.60L46.93 7.60Q46.93 7.59 46.93 7.55L46.93 7.55L46.93 7.55Q46.93 7.52 46.95 7.43L46.95 7.43L46.95 7.43Q46.97 7.34 47.01 7.17L47.01 7.17L47.01 7.17Q47.05 7 47.14 6.71L47.14 6.71L47.14 6.71Q47.32 6.02 47.32 5.60L47.32 5.60L47.32 5.60Q47.32 5.57 47.31 5.47L47.31 5.47L47.31 5.47Q47.29 5.36 47.22 5.17L47.22 5.17L47.22 5.17Q47.08 4.83 47.08 4.56L47.08 4.56L47.08 4.56Q47.08 4.27 47.14 4.09L47.14 4.09L47.14 4.09Q47.19 3.91 47.28 3.80L47.28 3.80L47.28 3.80Q47.36 3.70 47.47 3.65L47.47 3.65L47.47 3.65Q47.57 3.61 47.67 3.61L47.67 3.61L47.67 3.61Q47.73 3.61 47.81 3.63L47.81 3.63L47.81 3.63Q47.89 3.65 47.97 3.72L47.97 3.72L47.97 3.72Q48.05 3.79 48.11 3.93L48.11 3.93L48.11 3.93Q48.17 4.06 48.19 4.27L48.19 4.27L48.19 4.27Q48.20 4.41 48.16 4.76L48.16 4.76L48.16 4.76Q48.13 4.96 48.13 5.05L48.13 5.05L48.13 5.05Q48.13 5.15 48.13 5.21L48.13 5.21L48.13 5.21Q48.15 5.24 48.24 5.31L48.24 5.31L48.24 5.31Q48.34 5.38 48.65 5.53L48.65 5.53L48.65 5.53Q49.41 5.89 49.41 6.47L49.41 6.47L49.41 6.47Q49.41 6.50 49.40 6.57L49.40 6.57L49.40 6.57Q49.39 6.65 49.39 6.80L49.39 6.80L49.39 6.80Q49.38 6.96 49.35 7.22L49.35 7.22L49.35 7.22Q49.32 7.49 49.28 7.91L49.28 7.91L49.28 7.91Q49.25 8.20 49.23 8.40L49.23 8.40L49.23 8.40Q49.21 8.60 49.20 8.72L49.20 8.72L49.20 8.72Q49.18 8.85 49.18 8.93L49.18 8.93L49.18 8.93Q49.17 9.02 49.17 9.10L49.17 9.10L49.17 9.10Q49.17 9.44 49.24 9.52L49.24 9.52L49.24 9.52Q49.31 9.60 49.38 9.60L49.38 9.60L49.38 9.60Q49.39 9.59 49.44 9.53L49.44 9.53L49.44 9.53Q49.49 9.46 49.57 9.30L49.57 9.30L49.57 9.30Q49.64 9.14 49.75 8.87L49.75 8.87L49.75 8.87Q49.85 8.60 50.01 8.16L50.01 8.16L50.01 8.16Q50.48 6.79 50.60 6.05L50.60 6.05L50.60 6.05Q50.64 5.73 50.76 5.63L50.76 5.63L50.76 5.63Q50.89 5.53 51.00 5.53Z"></path></g><!----><g data-v-423bf9ae="" id="ddae30ba-55e0-44b1-b9a0-4517c5ef2748" transform="matrix(1.0899369264863021,0,0,1.0899369264863021,4.3442129787631885,-1.106462228615051)" stroke="none" fill="black"><path d="M44.873 2.446c-13.465-5.813-21.469 9.813-14.12 19.163 1.423-9.672 7.955-14.234 14.12-19.163zm-30.257 21.18c-3.472 1.906-4.914 5.843-9.077 7.059 1.598 7.577-4.641 14.246 2.017 8.068v-7.059c6.161-3.368 10.435-13.613 20.171-10.086-3.051-4.271-1.041-13.372-2.017-17.146-5.202 1.443-10.108 6.544-7.061 13.111-5.634-3.014-17.388 1.233-16.137 5.043 2.297-1.9 11.027-1.656 12.104 1.01zm-.671 15.127s2.877-4.601 7.313-6.975c.824-.441-7.985 0-7.985 0l.672 6.975zm19.834-17.145c5.575-7.2 14.416-11.136 27.232-11.094-7.621-14.817-29.049 1.197-27.232 11.094zm33.284 15.129c-3.7-10.131-18.396-13.015-32.274-11.095 27.511 6.801-4.269 35.25 0 49.421 2.032 6.749 15.094 11.283 26.222 7.06-23.024-4.493 1.187-45.024-15.128-53.454 20.691 5.66-2.267 41.805 13.11 44.377-4.249-2.781-3.641-5.699-3.049-7.016 5.313-9.719 15.724-16.682 11.119-29.293zm-31.266-14.12c18.77-3.389 33.964 4.848 36.309 21.18 14.315-27.808-23.072-37.841-36.309-21.18zm-1.008 6.051c8.168 10.069 2.536 26.342-14.122 23.196 1.136 2.898.205 7.865 2.019 10.086 1.627-6.438 6.64-9.498 16.137-8.069 4.172-6.782 5.151-23.399-4.034-25.213zm-17.204 40.12a4.33 4.33 0 0 0-.446.399c-.604.459-1.363.763-2.371.815a2.762 2.762 0 0 1-.234-.05c-.535-.438-3.771-3.168-3.961-5.483.149-.22.389-.449.781-.614l.111-.034c2.338-.229 3.041 1.177 5.169 1.154-.603-1.795 2.955-4.188 0-5.041-5.859 6.5-18.003-1.564-12.103-10.086-3.632-.27-4.86 1.864-8.068 2.017 6.749 9.724 14.194 18.75 25.213 24.207-1.135-2.9-.203-7.866-2.016-10.086-.697.928-1.257 1.995-2.075 2.802z"></path></g><!----><g data-v-423bf9ae="" id="f3dd0c9d-dc27-48b0-b85d-4065090ab496" fill="black" transform="matrix(2.0814306300751397,0,0,2.0814306300751397,107.17583377146472,58.59275169487444)"><path d="M1.10 2.53L1.10 2.53Q0.85 3.62 0.24 6.79L0.24 6.79L0.24 6.79Q0 8.03-0.19 8.93L-0.19 8.93L-0.19 8.93Q-0.58 10.78-0.59 10.91L-0.59 10.91L-0.59 10.91Q-0.59 10.99-0.36 11.00L-0.36 11.00L-0.36 11.00Q-0.14 11.01 0.14 10.96L0.14 10.96L0.14 10.96Q0.87 10.81 0.88 10.52L0.88 10.52L0.88 10.52Q0.88 10.23 1.04 9.62L1.04 9.62L1.04 9.62Q1.11 9.32 1.27 8.57L1.27 8.57L1.27 8.57Q1.44 7.77 1.70 6.44L1.70 6.44L1.70 6.44Q2.30 3.36 2.54 2.27L2.54 2.27L2.54 2.27Q2.60 2.02 1.96 2.13L1.96 2.13L1.96 2.13Q1.65 2.19 1.40 2.31L1.40 2.31L1.40 2.31Q1.12 2.44 1.10 2.53L1.10 2.53ZM22.33 9.37L22.33 9.37Q22.23 9.50 21.98 9.70L21.98 9.70L21.98 9.70Q21.94 9.73 21.83 9.80L21.83 9.80L21.83 9.80Q21.78 9.84 21.72 9.87L21.72 9.87L21.72 9.87Q21.62 9.94 21.62 9.93L21.62 9.93L21.62 9.93Q21.53 9.97 21.42 10.03L21.42 10.03L21.42 10.03Q21.40 10.04 21.33 10.06L21.33 10.06L21.33 10.06Q21.33 10.07 21.23 10.11L21.23 10.11L21.23 10.11Q21.21 10.11 21.14 10.14L21.14 10.14L21.14 10.14Q21.06 10.16 21.05 10.17L21.05 10.17L21.05 10.17Q20.97 10.19 20.86 10.21L20.86 10.21L20.86 10.21Q20.84 10.23 20.69 10.25L20.69 10.25L20.69 10.25Q20.69 10.25 20.64 10.26L20.64 10.26L20.64 10.26Q20.67 10.26 20.52 10.27L20.52 10.27L20.52 10.27Q20.45 10.28 20.32 10.29L20.32 10.29L20.32 10.29Q20.35 10.29 20.17 10.29L20.17 10.29L20.17 10.29Q20.25 10.03 20.61 8.24L20.61 8.24L20.61 8.24Q20.93 8.20 21.21 8.05L21.21 8.05L21.21 8.05Q21.33 7.99 21.47 7.93L21.47 7.93L21.47 7.93Q21.48 7.92 21.49 7.92L21.49 7.92L21.49 7.92Q21.49 7.92 21.49 7.92L21.49 7.92L21.49 7.92Q21.57 7.88 21.70 7.84L21.70 7.84L21.70 7.84Q21.71 7.84 21.71 7.83L21.71 7.83L21.72 7.83L21.72 7.83Q21.74 7.83 21.80 7.81L21.80 7.81L21.80 7.81Q21.88 7.79 21.88 7.79L21.88 7.79L21.88 7.79Q21.92 7.79 21.96 7.78L21.96 7.78L21.96 7.78Q22.00 7.77 22.05 7.77L22.05 7.77L22.05 7.77Q22.05 7.77 22.05 7.77L22.05 7.77L22.05 7.77Q22.07 7.77 22.10 7.77L22.10 7.77L22.10 7.77Q22.13 7.77 22.15 7.77L22.15 7.77L22.15 7.77Q22.16 7.77 22.20 7.78L22.20 7.78L22.20 7.78Q22.33 7.81 22.44 7.88L22.44 7.88L22.44 7.88Q22.66 8.03 22.66 8.46L22.66 8.46L22.66 8.46Q22.66 8.93 22.33 9.37L22.33 9.37ZM21.95 6.15L21.95 6.15Q21.46 6.95 20.77 7.54L20.77 7.54L20.77 7.54Q20.91 6.95 21.18 6.02L21.18 6.02L21.18 6.02Q21.91 3.45 22.09 2.44L22.09 2.44L22.09 2.44Q22.61 2.95 22.67 3.83L22.67 3.83L22.67 3.83Q22.75 4.83 21.95 6.15L21.95 6.15ZM22.27 7.25L22.27 7.25Q22.88 6.67 23.34 5.95L23.34 5.95L23.34 5.95Q24.25 4.56 24.12 3.30L24.12 3.30L24.12 3.30Q24.01 2.15 23.00 1.62L23.00 1.62L23.00 1.62Q21.98 1.08 20.38 1.55L20.38 1.55L20.38 1.55Q19.65 1.76 19.70 1.96L19.70 1.96L19.70 1.96Q19.77 2.20 20.49 1.99L20.49 1.99L20.49 1.99Q20.67 1.93 20.62 1.95L20.62 1.95L20.62 1.95Q20.69 1.94 20.69 1.93L20.69 1.93L20.69 1.93Q20.71 1.93 20.72 1.93L20.72 1.93L20.72 1.93Q20.76 1.93 20.79 1.93L20.79 1.93L20.79 1.93Q20.77 1.97 20.76 2.02L20.76 2.02L20.76 2.02Q20.61 3.23 19.74 6.28L19.74 6.28L19.74 6.28Q19.39 7.50 19.20 8.38L19.20 8.38L19.20 8.38Q18.70 10.71 18.71 10.66L18.71 10.66L18.71 10.66Q18.66 10.84 19.01 10.83L19.01 10.83L19.01 10.83Q19.07 10.87 19.20 10.88L19.20 10.88L19.20 10.88Q20.74 10.93 22.37 10.16L22.37 10.16L22.37 10.16Q23.98 9.39 24.12 8.16L24.12 8.16L24.12 8.16Q24.25 6.88 22.27 7.25L22.27 7.25ZM35.74 2.21L35.74 2.21Q35.10 2.38 35.07 2.63L35.07 2.63L35.07 2.63Q35.01 3.01 34.86 4.51L34.86 4.51L34.86 4.51Q34.73 5.69 34.60 6.41L34.60 6.41L34.60 6.41Q34.19 8.57 33.09 9.83L33.09 9.83L33.09 9.83Q32.94 10.00 32.83 10.12L32.83 10.12L32.83 10.12Q32.57 9.61 32.53 8.40L32.53 8.40L32.53 8.40Q32.48 6.90 33.40 4.58L33.40 4.58L33.40 4.58Q34.08 2.88 34.25 2.40L34.25 2.40L34.25 2.40Q34.34 2.15 33.67 2.26L33.67 2.26L33.67 2.26Q32.89 2.41 32.81 2.66L32.81 2.66L32.81 2.66Q32.64 3.12 32.09 4.53L32.09 4.53L32.09 4.53Q31.62 5.71 31.41 6.43L31.41 6.43L31.41 6.43Q30.75 8.66 31.32 10.36L31.32 10.36L31.32 10.36Q31.42 10.68 31.62 10.83L31.62 10.83L31.62 10.83Q31.85 11.03 32.49 10.92L32.49 10.92L32.49 10.92Q33.50 10.73 34.41 9.71L34.41 9.71L34.41 9.71Q35.58 8.41 36.01 6.34L36.01 6.34L36.01 6.34Q36.17 5.55 36.31 4.29L36.31 4.29L36.31 4.29Q36.48 2.58 36.53 2.24L36.53 2.24L36.53 2.24Q36.54 2.11 36.16 2.14L36.16 2.14L36.16 2.14Q35.91 2.16 35.74 2.21L35.74 2.21ZM44.43 2.53L44.43 2.53Q44.19 3.62 43.57 6.79L43.57 6.79L43.57 6.79Q43.33 8.03 43.14 8.93L43.14 8.93L43.14 8.93Q42.75 10.78 42.75 10.91L42.75 10.91L42.75 10.91Q42.75 10.99 42.97 11.00L42.97 11.00L42.97 11.00Q43.19 11.01 43.47 10.96L43.47 10.96L43.47 10.96Q44.20 10.81 44.21 10.52L44.21 10.52L44.21 10.52Q44.21 10.23 44.37 9.62L44.37 9.62L44.37 9.62Q44.45 9.32 44.60 8.57L44.60 8.57L44.60 8.57Q44.78 7.77 45.04 6.44L45.04 6.44L45.04 6.44Q45.63 3.36 45.88 2.27L45.88 2.27L45.88 2.27Q45.93 2.02 45.29 2.13L45.29 2.13L45.29 2.13Q44.99 2.19 44.73 2.31L44.73 2.31L44.73 2.31Q44.45 2.44 44.43 2.53L44.43 2.53ZM54.96 11.33L54.96 11.33Q53.92 11.36 53.48 11.16L53.48 11.16L53.48 11.16Q54.33 6.57 55.45 2.08L55.45 2.08L55.45 2.08Q55.51 1.83 54.87 1.95L54.87 1.95L54.87 1.95Q54.56 2.00 54.31 2.12L54.31 2.12L54.31 2.12Q54.03 2.25 54.01 2.34L54.01 2.34L54.01 2.34Q52.89 6.83 52.03 11.47L52.03 11.47L52.03 11.47Q51.94 11.56 52.01 11.61L52.01 11.61L52.01 11.61Q52.01 11.63 52.00 11.70L52.00 11.70L52.00 11.70Q51.99 11.74 51.99 11.78L51.99 11.78L51.99 11.78Q51.97 11.94 52.61 11.83L52.61 11.83L52.61 11.83Q53.10 11.95 54.01 11.92L54.01 11.92L54.01 11.92Q54.62 11.91 55.04 11.65L55.04 11.65L55.04 11.65Q55.22 11.54 55.20 11.44L55.20 11.44L55.20 11.44Q55.17 11.33 54.96 11.33L54.96 11.33ZM67.30 3.48L67.30 3.48Q67.26 1.70 66.41 1.01L66.41 1.01L66.41 1.01Q65.95 0.64 65.05 0.68L65.05 0.68L65.05 0.68Q64.05 0.72 62.80 1.40L62.80 1.40L62.80 1.40Q62.62 1.50 62.65 1.60L62.65 1.60L62.65 1.60Q62.69 1.70 62.88 1.71L62.88 1.71L62.88 1.71Q63.38 1.72 63.92 1.44L63.92 1.44L63.92 1.44Q63.93 1.43 63.95 1.42L63.95 1.42L63.95 1.42Q63.99 1.39 64.07 1.35L64.07 1.35L64.07 1.35Q64.11 1.34 64.19 1.31L64.19 1.31L64.19 1.31Q64.22 1.29 64.33 1.26L64.33 1.26L64.33 1.26L64.33 1.26Q64.34 1.25 64.34 1.26L64.34 1.26L64.34 1.26Q64.35 1.25 64.37 1.25L64.37 1.25L64.37 1.25Q64.40 1.25 64.44 1.26L64.44 1.26L64.44 1.26Q64.45 1.26 64.47 1.26L64.47 1.26L64.47 1.26Q64.52 1.26 64.52 1.26L64.52 1.26L64.52 1.26Q64.60 1.28 64.70 1.31L64.70 1.31L64.70 1.31Q64.71 1.31 64.71 1.31L64.71 1.31L64.71 1.31Q64.71 1.31 64.72 1.31L64.72 1.31L64.72 1.31Q64.74 1.33 64.79 1.35L64.79 1.35L64.79 1.35Q64.85 1.37 64.93 1.43L64.93 1.43L64.93 1.43Q65.06 1.51 65.19 1.65L65.19 1.65L65.19 1.65Q65.39 1.85 65.54 2.23L65.54 2.23L65.54 2.23Q66.14 3.66 65.60 6.11L65.60 6.11L65.60 6.11Q65.26 7.70 64.54 8.97L64.54 8.97L64.54 8.97Q64.19 9.60 63.79 10.03L63.79 10.03L63.79 10.03Q63.61 10.22 63.40 10.39L63.40 10.39L63.40 10.39Q64.48 5.68 64.95 1.78L64.95 1.78L64.95 1.78Q64.96 1.71 64.74 1.70L64.74 1.70L64.74 1.70Q64.52 1.69 64.24 1.74L64.24 1.74L64.24 1.74Q63.52 1.87 63.49 2.17L63.49 2.17L63.49 2.17Q63.01 6.19 61.84 11.16L61.84 11.16L61.84 11.16Q61.78 11.42 62.42 11.30L62.42 11.30L62.42 11.30Q62.72 11.25 62.97 11.12L62.97 11.12L62.97 11.12Q63.17 11.03 63.23 10.97L63.23 10.97L63.23 10.97Q63.50 10.93 63.88 10.77L63.88 10.77L63.88 10.77Q65.45 10.12 66.43 7.78L66.43 7.78L66.43 7.78Q67.34 5.63 67.30 3.48L67.30 3.48Z"></path></g></svg>